<?xml version="1.0" encoding="UTF-8" standalone="no"?>
<!-- Created with Inkscape (http://www.inkscape.org/) -->

<svg
   width="64"
   height="64"
   viewBox="0 0 200 200"
   version="1.1"
   id="svg1"
   inkscape:version="1.4 (e7c3feb1, 2024-10-09)"
   sodipodi:docname="12xgraph.svg"
   xmlns:inkscape="http://www.inkscape.org/namespaces/inkscape"
   xmlns:sodipodi="http://sodipodi.sourceforge.net/DTD/sodipodi-0.dtd"
   xmlns="http://www.w3.org/2000/svg"
   xmlns:svg="http://www.w3.org/2000/svg">
  <g
     inkscape:label="Layer 1"
     inkscape:groupmode="layer"
     id="layer1">
    <path
       id="rect1"
       style="fill:#ffffff;stroke-width:2.622"
       d="M 34.960784 37.399775 C 23.700229 37.399775 14.634893 46.465222 14.634893 57.725776 L 14.634893 155.28995 C 14.634893 166.5505 23.700229 175.61595 34.960784 175.61595 L 47.562599 175.61595 C 58.823153 175.61595 67.88849 166.5505 67.88849 155.28995 L 67.88849 57.725776 C 67.88849 46.465222 58.823153 37.399775 47.562599 37.399775 L 34.960784 37.399775 z M 38.025713 65.194607 L 46.724407 65.194607 L 46.724407 134.91447 L 60.07398 134.91447 L 60.07398 143.84726 L 24.589841 143.84726 L 24.589841 134.91447 L 38.111496 134.91447 L 38.111496 75.290689 L 21.919719 84.857769 L 21.919719 74.603747 L 38.025713 65.194607 z "
       transform="matrix(1,0,0,0.81470588,-4.5032114,33.127335)" />
    <path
       id="rect1-2-5"
       style="fill:#ffffff;fill-opacity:1;stroke-width:2.622"
       d="M 34.96036 37.399475 C 23.699805 37.399475 14.634469 46.465047 14.634469 57.725601 L 14.634469 155.29011 C 14.634469 166.55066 23.699805 175.61574 34.96036 175.61574 L 47.562692 175.61574 C 58.823246 175.61574 67.888583 166.55066 67.888583 155.29011 L 67.888583 57.725601 C 67.888583 46.465047 58.823246 37.399475 47.562692 37.399475 L 34.96036 37.399475 z M 38.529135 88.177758 C 44.81643 88.177758 49.86907 89.793271 53.687382 93.024294 C 57.534404 96.227701 59.45809 100.43875 59.45809 105.6581 C 59.45809 108.30919 58.812134 110.96029 57.520223 113.61139 C 56.257022 116.26248 54.189963 119.1899 51.319052 122.39331 C 49.711341 124.18832 47.3712 126.67373 44.299325 129.84952 C 41.256159 133.02531 36.605275 137.77537 30.346688 144.09933 L 59.888554 144.09933 L 59.888554 151.14098 L 20.829957 151.14098 L 20.829957 144.09933 C 26.198561 138.65906 30.892508 133.85395 34.911784 129.68399 C 38.93106 125.51404 41.701322 122.57298 43.222905 120.86081 C 46.093816 117.49171 48.031685 114.77141 49.036504 112.70024 C 50.041323 110.60145 50.543905 108.46108 50.543905 106.27945 C 50.543905 102.8275 49.481494 100.12133 47.357019 98.160629 C 45.261254 96.199923 42.375984 95.219402 38.701217 95.219402 C 36.088688 95.219402 33.346791 95.67506 30.475879 96.586374 C 27.604968 97.497688 24.562142 98.878801 21.346721 100.72904 L 21.346721 92.278673 C 24.30376 90.92551 27.203212 89.903566 30.045415 89.213177 C 32.916326 88.522787 35.744351 88.177758 38.529135 88.177758 z "
       transform="matrix(1,0,0,1.0395985,59.059224,-6.3873315)" />
    <path
       id="rect1-2"
       style="fill:#ffffff;stroke-width:2.622"
       inkscape:label="rect1-2"
       d="M 34.960689 37.399832 C 23.700134 37.399832 14.634797 46.46497 14.634797 57.725524 L 14.634797 155.28982 C 14.634797 166.55037 23.700134 175.61595 34.960689 175.61595 L 47.562503 175.61595 C 58.823057 175.61595 67.888394 166.55037 67.888394 155.28982 L 67.888394 57.725524 C 67.888394 46.46497 58.823057 37.399832 47.562503 37.399832 L 34.960689 37.399832 z M 18.343098 98.726577 L 27.687747 98.726577 L 41.812983 119.41428 L 56.196085 98.726577 L 65.540734 98.726577 L 46.291263 124.52172 L 66.918945 153.58734 L 57.574295 153.58734 L 41.812983 129.96031 L 24.802652 153.58734 L 15.414595 153.58734 L 36.946614 124.52172 L 18.343098 98.726577 z "
       transform="matrix(1,0,0,1.1719536,121.7884,-29.661707)" />
  </g>
</svg>
